<svg xmlns="http://www.w3.org/2000/svg" viewBox="0 0 512 512" width="512" height="512">
  <rect width="512" height="512" fill="#E8862D"/>
  <g transform="translate(64 64) scale(0.75)">
    <circle cx="248" cy="268" r="192" fill="#F29A44"/>
    <g transform="rotate(-14 256 266)">
      <path d="M256 96 C 187 96 136 148 136 214 C 136 262 176 318 256 416 C 336 318 376 262 376 214 C 376 148 325 96 256 96 Z" fill="#FFF9EF"/>
      <path d="M204 202 c 8 13 24 13 32 0" fill="none" stroke="#A85B14" stroke-width="13" stroke-linecap="round"/>
      <path d="M276 202 c 8 13 24 13 32 0" fill="none" stroke="#A85B14" stroke-width="13" stroke-linecap="round"/>
      <path d="M238 250 c 8 9 28 9 36 0" fill="none" stroke="#A85B14" stroke-width="12" stroke-linecap="round"/>
      <circle cx="196" cy="236" r="13" fill="#F6C89B"/>
      <circle cx="316" cy="236" r="13" fill="#F6C89B"/>
    </g>
    <g stroke="#FFF9EF" stroke-linecap="round" stroke-linejoin="round" fill="none">
      <path d="M382 108 h 46 l -46 48 h 46" stroke-width="17"/>
      <path d="M446 62 h 30 l -30 33 h 30" stroke-width="12"/>
    </g>
  </g>
</svg>
