<svg xmlns="http://www.w3.org/2000/svg" viewBox="0 0 512 512" width="512" height="512">
  <g fill="currentColor">
    <g transform="rotate(-14 256 266)">
      <path d="M256 76 C 176 76 116 136 116 214 C 116 272 162 334 256 446 C 350 334 396 272 396 214 C 396 136 336 76 256 76 Z M 222 190 c 8 0 13 5 16 12 c 3 8 12 8 15 0 c 3 -7 8 -12 16 -12 z M 294 190 c 8 0 13 5 16 12 c 3 8 12 8 15 0 c 3 -7 8 -12 16 -12 z" fill-rule="evenodd"/>
    </g>
    <path d="M375 100 a 9 9 0 0 1 0 -18 h 53 a 9 9 0 0 1 7 15 l -39 41 h 32 a 9 9 0 0 1 0 18 h -53 a 9 9 0 0 1 -7 -15 l 39 -41 z"/>
    <path d="M443 56 a 7 7 0 0 1 0 -14 h 37 a 7 7 0 0 1 5 12 l -25 27 h 20 a 7 7 0 0 1 0 14 h -37 a 7 7 0 0 1 -5 -12 l 25 -27 z"/>
  </g>
</svg>
